<svg xmlns="http://www.w3.org/2000/svg" xmlns:xlink="http://www.w3.org/1999/xlink" version="1.1" id="Layer_1" x="0px" y="0px" enable-background="new 0 0 1024 576" xml:space="preserve" viewBox="362.41 152.04 307.84 270.74">
<path fill="#673ab7" opacity="1.000000" stroke="none" d=" M454.681946,213.878967   C458.204315,204.986359 462.584808,197.129776 469.216339,190.991486   C471.356903,191.790375 471.295654,193.055435 471.026062,194.162079   C468.741974,203.537918 472.196075,211.457184 477.087616,219.103821   C482.131622,226.988815 488.534302,233.827652 493.978912,241.400848   C496.314880,244.650055 498.463348,247.991684 500.438416,251.483521   C509.619476,267.715240 507.096313,283.109924 497.440796,298.099609   C495.787811,300.665771 494.180054,302.266174 491.139679,299.648987   C477.659271,288.044952 465.409119,275.375458 457.547028,259.191132   C450.512390,244.710114 448.574951,229.696152 454.681946,213.878967  z"/>
<path fill="#673ab7" opacity="1.000000" stroke="none" d=" M531.040161,309.310547   C524.183350,310.711151 517.702576,310.468170 511.227081,309.882233   C509.782471,309.751465 508.073029,309.595734 507.434540,307.942322   C506.753479,306.178711 508.283173,305.213867 509.243896,304.156067   C519.534729,292.825958 530.482056,282.100067 540.182129,270.224152   C555.732849,251.185318 560.654541,230.310944 551.445862,206.894379   C550.960327,205.659637 550.343750,204.399521 552.165649,203.020996   C557.924072,206.815659 562.474121,212.032242 566.655823,217.507675   C574.974487,228.399963 581.081238,240.263657 581.313049,254.403076   C581.590454,271.320404 574.032227,284.424316 561.338013,294.919189   C552.589233,302.152161 542.629211,306.973145 531.040161,309.310547  z"/>
<path fill="#673ab7" opacity="1.000000" stroke="none" d=" M532.178162,253.109985   C528.885132,258.847351 525.444397,263.992493 520.806213,267.956329   C518.729797,266.917999 518.702881,265.506989 518.860107,264.204529   C520.405823,251.394958 513.731506,241.925598 506.139313,232.854950   C499.628937,225.076782 492.823212,217.550858 488.867523,207.966873   C484.646484,197.739914 486.502167,187.980042 491.174194,178.637192   C496.130219,168.726486 503.439758,160.488297 511.312714,152.770355   C511.731079,152.360229 512.452942,152.259689 512.982605,152.036499   C515.033569,153.697525 513.634705,155.315567 513.098572,156.646423   C509.362335,165.920563 510.910645,174.714951 515.902466,182.880951   C519.884460,189.394928 524.601257,195.458435 528.966003,201.739899   C535.339294,210.912018 540.158813,220.530075 539.351013,232.250977   C538.830139,239.809250 536.078308,246.419678 532.178162,253.109985  z"/>
<path fill="#673ab7" opacity="1.000000" stroke="none" d=" M452.834045,395.685913   C452.458679,390.921356 453.412323,386.488434 451.530304,382.254578   C449.610016,386.270477 450.236664,390.532501 450.245575,394.672791   C450.253052,398.149872 450.195099,400.950500 445.502106,400.952484   C438.125977,400.955597 435.751038,399.791809 435.743011,394.854919   C435.716736,378.717041 435.897461,362.578918 435.978394,346.440796   C435.993622,343.409821 437.310852,341.799988 440.479675,341.800903   C448.465912,341.803162 456.453247,341.806366 464.437805,341.669708   C467.674896,341.614319 469.042572,343.231445 469.051727,346.183685   C469.101746,362.320892 469.122559,378.458313 469.086761,394.595520   C469.079071,398.060699 467.537018,400.272766 463.697388,400.328430   C461.874512,400.354797 460.056335,400.663605 458.234741,400.830353   C454.812073,401.143677 452.736206,399.898926 452.834045,395.685913  M453.663422,361.503662   C453.516083,358.697876 454.772400,355.702698 452.204437,352.258514   C450.860260,355.863007 450.366180,358.905365 450.720215,361.905792   C450.934692,363.723602 452.360992,363.732422 453.663422,361.503662  z"/>
<path fill="#673ab7" opacity="1.000000" stroke="none" d=" M560.685425,351.049957   C560.747253,348.901154 560.810181,347.239136 560.866089,345.576874   C560.956055,342.906189 562.369568,341.663544 565.002930,341.727783   C565.169006,341.731812 565.335815,341.722717 565.501709,341.711945   C575.662476,341.055023 575.703064,341.051819 576.482727,351.076294   C577.619995,365.699738 576.975830,380.314484 576.357178,394.941040   C576.109253,400.802521 572.019836,400.367249 568.314087,400.624207   C561.842407,401.072876 561.079773,400.369385 560.907288,393.881042   C560.768188,388.648682 560.879150,383.409698 560.879150,377.789948   C557.893555,378.521759 558.170532,380.193695 558.165771,381.532379   C558.147827,386.521423 558.132385,391.514984 558.327881,396.498566   C558.444214,399.464874 557.182922,400.912598 554.324280,400.907837   C552.003296,400.903961 549.675842,400.743713 547.363647,400.523346   C544.417236,400.242493 542.898376,398.566376 542.906189,395.567871   C542.948853,379.265900 542.969055,362.963867 543.047791,346.662079   C543.064819,343.139038 545.015259,341.858612 548.493896,341.743439   C558.516235,341.411499 558.797058,341.518646 557.828979,351.369904   C557.375549,355.983704 557.493286,360.451569 559.542786,364.813110   C561.587341,360.520935 560.275757,355.944580 560.685425,351.049957  z"/>
<path fill="#673ab7" opacity="1.000000" stroke="none" d=" M432.693420,393.591675   C433.019775,398.281708 431.015472,400.142029 426.641266,400.542236   C419.816254,401.166595 413.013580,401.086517 406.188507,401.020721   C401.222504,400.972839 398.908722,398.539246 398.888367,393.673462   C398.832703,380.356354 398.321259,367.015656 399.423035,353.736023   C400.413513,341.798340 400.703308,341.821777 412.783844,341.750946   C417.446106,341.723633 422.108582,341.659821 426.770569,341.684326   C432.217102,341.712982 434.567566,345.934174 431.791687,350.722107   C429.002228,355.533447 424.999847,358.817322 419.577728,360.366486   C417.966949,360.826691 415.063934,360.792969 415.708435,363.214264   C416.474091,366.090851 419.010559,364.104767 420.803619,363.894226   C425.175903,363.380890 427.954834,359.946838 432.331757,357.068726   C433.915314,366.778320 432.959625,375.623810 432.839081,385.207306   C426.531647,382.795868 422.699554,376.165405 414.814941,379.320282   C417.841705,382.808197 421.999786,382.785797 424.978790,384.785828   C428.265259,386.992279 430.616119,389.901337 432.693420,393.591675  z"/>
<path fill="#673ab7" opacity="1.000000" stroke="none" d=" M362.745911,368.999329   C362.794464,361.502899 362.954468,354.504639 362.843933,347.510712   C362.780792,343.515869 364.337677,341.548615 368.428314,341.779510   C369.756348,341.854462 371.102295,341.875793 372.423889,341.750793   C376.275574,341.386505 377.844757,342.788849 377.466095,346.898315   C377.054962,351.360046 377.285126,355.886017 377.338135,360.382751   C377.358521,362.108368 376.906403,364.138336 379.099884,365.037842   C380.757080,364.648499 380.625000,363.357452 380.638062,362.237579   C380.678894,358.739807 380.635071,355.241211 380.651917,351.743011   C380.701721,341.397095 382.203094,340.215790 392.604614,341.595245   C395.424591,341.969238 395.718109,343.850708 395.830688,345.803925   C396.108398,350.622986 396.265015,355.455536 396.265350,360.282684   C396.266083,370.942932 396.214905,381.604401 396.040588,392.263000   C395.923431,399.426208 395.370056,399.894592 388.441040,400.398132   C387.610931,400.458435 386.764313,400.466705 385.957703,400.645294   C382.076599,401.504639 380.794586,399.495056 380.765656,396.038055   C380.727997,391.540710 380.732635,387.042114 380.615509,382.546783   C380.574432,380.969666 381.187836,379.171417 379.526184,377.874329   C376.983429,378.012024 377.368011,380.005371 377.376434,381.522217   C377.403198,386.345398 377.280518,391.199585 377.792053,395.980072   C378.174194,399.551239 376.973297,401.070038 373.577148,400.998322   C371.587708,400.956329 369.606812,400.568207 367.616425,400.499054   C363.990082,400.373047 362.737000,398.390259 362.761719,394.986694   C362.823456,386.491394 362.758270,377.995148 362.745911,368.999329  z"/>
<path fill="#673ab7" opacity="1.000000" stroke="none" d=" M667.636108,342.044373   C670.639221,347.892700 669.364014,353.989044 669.849304,359.851257   C670.838257,371.798218 669.711914,383.787628 669.305664,395.757629   C669.212402,398.502960 668.245850,400.032684 665.294434,400.373291   C657.160828,401.311859 649.060303,401.523163 640.906494,400.522461   C637.845398,400.146729 636.353943,398.736481 636.275818,395.803467   C636.125366,390.153290 635.977234,384.499878 636.019348,378.849213   C636.040588,376.004150 637.683411,374.595581 640.610657,375.053711   C643.885681,375.566254 647.241150,375.837067 649.968628,378.080017   C654.109436,381.485260 654.043213,384.087708 649.732422,387.154846   C648.726013,387.870941 647.082214,388.002777 647.193848,390.132935   C649.524658,391.702454 651.553040,390.540283 653.177673,388.886292   C655.531006,386.490540 656.474670,383.487091 655.433716,380.164856   C653.568970,374.213318 648.637268,372.306366 643.200989,371.343109   C636.373352,370.133331 636.437317,370.228302 636.632385,363.122620   C636.778503,357.800659 636.824158,352.467407 636.648254,347.147980   C636.522705,343.350464 637.934753,341.802277 641.841003,341.719147   C651.306641,341.517639 651.194519,341.378387 651.317810,350.656738   C651.376892,355.105225 650.536011,359.697784 652.423523,365.293488   C654.825562,360.492889 653.778137,356.661469 653.840149,353.016449   C654.039734,341.292114 653.940796,341.288940 665.719788,341.685852   C666.216614,341.702606 666.710876,341.794891 667.636108,342.044373  z"/>
<path fill="#673ab7" opacity="1.000000" stroke="none" d=" M600.036377,366.000458   C600.110962,359.350922 600.174561,353.201111 600.259583,347.051605   C600.309509,343.438507 601.913757,341.820709 605.774963,341.715118   C617.301819,341.399841 617.259460,341.262482 617.336182,352.721283   C617.414124,364.358551 617.431458,375.988525 616.303040,387.592102   C616.135010,389.319824 615.555298,391.234894 617.250122,393.046936   C620.276428,391.566254 621.371704,388.038116 624.143982,386.339905   C625.696167,385.389099 627.084106,384.111053 628.723022,383.373749   C631.606018,382.076813 633.733704,382.779602 633.716492,386.353546   C633.700500,389.671692 633.399536,392.990021 633.177185,396.305145   C633.022339,398.613770 631.766052,399.976074 629.452637,400.263489   C621.177124,401.291687 612.887390,401.484314 604.578247,400.685699   C601.039307,400.345551 599.845581,398.294464 599.889099,394.932343   C600.012024,385.455933 599.995728,375.977783 600.036377,366.000458  z"/>
<path fill="#673ab7" opacity="1.000000" stroke="none" d=" M489.833618,393.146210   C493.295685,390.249298 495.289490,386.162689 499.416046,384.282288   C501.073242,383.527130 502.749786,382.279572 504.567932,383.184601   C506.591583,384.192017 506.045044,386.372040 505.977173,388.120667   C505.867828,390.937836 505.454193,393.741730 505.250916,396.557159   C505.095032,398.715607 504.009735,399.947693 501.883087,400.184113   C493.445068,401.122162 485.015442,401.791199 476.535767,400.442108   C473.895691,400.022095 472.707062,398.764252 472.708893,396.192688   C472.720764,379.561096 472.744354,362.929535 472.730560,346.297943   C472.727966,343.147583 474.273773,341.986877 477.334137,341.780945   C489.293304,340.976227 489.181549,340.911560 489.443329,352.765137   C489.714935,365.065948 489.553345,377.342438 488.418640,389.599823   C488.299408,390.888000 488.041412,392.311615 489.833618,393.146210  z"/>
<path fill="#673ab7" opacity="1.000000" stroke="none" d=" M518.778320,360.069397   C518.674988,355.108185 515.680786,355.957672 513.210815,357.053650   C508.926453,358.954742 507.734436,357.278137 508.033295,353.257019   C509.046112,339.631348 506.998260,342.152863 519.364014,341.785187   C525.023193,341.616943 530.694397,341.819916 536.350708,341.605133   C539.846313,341.472351 541.323547,343.036377 541.195007,346.313721   C541.041260,350.234070 541.967041,354.229004 540.676025,358.061005   C538.142578,358.698029 536.288208,357.231689 534.259766,356.673126   C530.970398,355.767365 529.266846,356.573639 528.868286,360.223511   C527.584106,371.985901 529.234192,383.426331 532.248962,394.750092   C532.665588,396.315155 533.741699,397.789764 532.801208,399.829895   C528.498779,401.233643 523.874817,401.191467 519.244385,401.034973   C515.256409,400.900238 515.007690,397.907318 514.837341,395.016602   C514.265808,385.319366 514.927551,375.730560 517.504883,366.316284   C518.030151,364.397797 518.345703,362.421875 518.778320,360.069397  z"/>
<path fill="#673ab7" opacity="1.000000" stroke="none" d=" M597.247192,352.045227   C597.227661,366.179260 597.242554,379.821747 597.167236,393.463715   C597.131042,400.009308 595.452026,401.190308 586.858948,401.078705   C580.835632,401.000488 579.748962,399.908966 579.741272,393.638641   C579.723022,378.665466 579.721741,363.692169 579.766724,348.719086   C579.785767,342.366760 580.280334,341.923157 586.556824,341.764557   C586.723145,341.760345 586.889526,341.759064 587.055847,341.755432   C597.150085,341.535614 597.150085,341.535614 597.247192,352.045227  z"/>
<path fill="#673ab7" opacity="1.000000" stroke="none" d=" M468.776306,409.573486   C475.486786,409.210602 475.941437,409.641144 475.595642,416.417480   C475.507141,418.152527 477.305237,419.852539 475.663269,421.585388   C473.687439,420.951416 472.749390,420.324860 471.211395,418.612305   C469.932526,418.448517 469.505676,419.300934 469.147278,420.294525   C468.771881,421.335327 467.997223,421.993958 466.883179,421.790253   C465.695190,421.573029 465.249786,420.479187 465.487457,419.506287   C466.307739,416.148529 462.600067,411.414642 468.776306,409.573486  z"/>
<path fill="#673ab7" opacity="1.000000" stroke="none" d=" M559.585205,410.612854   C562.908569,409.611389 566.010254,408.121277 568.988831,410.367035   C568.697266,413.431671 565.824768,411.838867 564.717957,413.315399   C565.767395,414.484589 568.123779,413.592163 568.573853,415.703888   C568.542297,417.792664 566.055237,416.689575 565.371765,418.048553   C566.435120,419.315826 568.857910,418.027802 569.465149,420.570740   C566.890442,423.352417 563.476318,422.519836 560.563049,421.742737   C557.731323,420.987457 558.293701,418.142090 558.615356,415.825012   C558.841309,414.197113 559.088135,412.572144 559.585205,410.612854  z"/>
<path fill="#673ab7" opacity="1.000000" stroke="none" d=" M549.172668,417.754150   C547.686218,418.414368 547.644653,419.725464 547.024414,420.659363   C545.631958,422.756012 544.086487,422.194427 543.410217,420.189636   C542.498047,417.485352 542.815063,414.598663 543.208801,411.794220   C543.352356,410.771790 543.915039,409.909576 545.116089,409.817169   C546.062622,409.744324 546.661987,410.246796 547.016357,411.090790   C547.386719,411.972931 547.342590,413.131744 548.870300,413.521454   C551.391846,414.605072 550.743225,407.360565 554.449341,410.975372   C555.831787,412.323792 555.406311,420.847473 554.033264,421.443115   C550.252686,423.083069 551.697388,418.141876 549.172668,417.754150  z"/>
<path fill="#673ab7" opacity="1.000000" stroke="none" d=" M436.216431,421.118195   C435.654053,420.676422 435.372711,420.471527 435.196289,420.198792   C433.058624,416.894318 432.685822,413.619965 435.873383,410.787628   C438.286560,408.643372 441.112915,408.531250 443.621063,410.551941   C446.232269,412.655609 446.979034,415.569397 445.421234,418.601593   C443.472900,422.394043 440.291260,422.974976 436.216431,421.118195  M437.840027,415.599701   C437.916504,417.514343 438.540161,418.981171 440.754608,417.896332   C442.089630,417.242310 442.250549,415.637146 441.518524,414.498901   C440.211670,412.466919 438.936798,413.073517 437.840027,415.599701  z"/>
<path fill="#673ab7" opacity="1.000000" stroke="none" d=" M530.987061,409.777893   C532.250122,412.898834 529.229126,411.828674 528.312073,412.972107   C528.639771,414.555603 531.278992,413.807343 531.240967,415.760742   C531.218201,417.696472 529.094360,416.875946 528.331970,417.944061   C529.086426,419.349915 531.466553,418.175262 531.896301,420.608856   C530.024841,423.261108 527.069824,422.243958 524.523315,421.915558   C521.890991,421.576050 522.068481,419.196625 521.964600,417.194061   C521.548279,409.170258 522.140259,408.651123 530.987061,409.777893  z"/>
<path fill="#673ab7" opacity="1.000000" stroke="none" d=" M398.484222,415.157776   C399.028564,408.731262 401.769531,407.454376 407.803375,410.433990   C408.064911,412.636536 405.869934,412.301270 404.898499,413.225525   C405.350616,417.349854 405.350616,417.349854 404.371277,417.784424   C404.994598,419.580658 407.855865,417.944733 408.040466,420.875488   C406.286713,423.233154 403.292877,422.468536 400.842590,421.891907   C397.472412,421.098846 398.900696,417.839111 398.484222,415.157776  z"/>
<path fill="#673ab7" opacity="1.000000" stroke="none" d=" M461.097839,417.609009   C458.782867,422.124908 455.707123,423.305573 452.256805,421.400421   C449.336823,419.788055 447.812897,414.027924 449.533752,411.195557   C449.993317,410.439117 450.563812,409.840179 451.475647,409.878479   C452.728607,409.931183 453.080292,410.873474 453.180847,411.927429   C453.259583,412.752930 453.237427,413.587830 453.309692,414.414215   C453.421448,415.692383 453.151367,417.395844 455.016998,417.469940   C456.882385,417.544067 456.810272,415.855743 456.935333,414.565948   C457.125885,412.600403 457.066833,410.530426 459.650665,409.740356   C462.199463,411.901093 460.982819,414.693939 461.097839,417.609009  z"/>
<path fill="#673ab7" opacity="1.000000" stroke="none" d=" M626.203247,415.147095   C626.097900,419.893219 626.097900,419.893219 623.917480,421.770355   C621.696533,421.328217 622.558105,418.446991 620.750488,417.723816   C620.372314,417.723816 620.031433,417.653900 619.731506,417.735107   C617.705261,418.283356 618.920166,422.455444 616.120544,421.532227   C613.511658,420.671906 615.010315,417.778076 614.656067,415.794647   C614.541321,415.152283 614.533936,414.455170 614.649902,413.814331   C614.915283,412.348328 613.670166,410.136902 616.081787,409.670319   C618.190002,409.262451 618.015564,411.449249 618.680237,412.658966   C618.894226,413.048157 619.396484,413.278900 619.634033,413.473419   C622.755737,413.988342 621.505066,408.656677 624.689514,409.860748   C626.840454,410.674072 625.969177,412.990784 626.203247,415.147095  z"/>
<path fill="#673ab7" opacity="1.000000" stroke="none" d=" M575.294312,412.422668   C578.686584,408.430634 580.093994,408.552582 582.107483,412.735687   C582.823181,414.222473 583.449463,415.753876 584.076050,417.281525   C584.621521,418.611633 585.800110,420.085632 584.341675,421.354828   C582.745178,422.744141 581.711243,421.191193 580.638489,420.200043   C579.450256,419.102112 578.233704,419.335663 577.081848,420.279449   C575.959473,421.199005 574.819214,422.778412 573.305481,421.416992   C571.874268,420.129883 572.651611,418.318451 573.238770,416.783997   C573.768616,415.399475 574.479919,414.084412 575.294312,412.422668  z"/>
<path fill="#673ab7" opacity="1.000000" stroke="none" d=" M513.870483,418.002380   C512.696960,419.651550 512.778259,422.364563 510.240326,421.771362   C507.475616,421.125122 508.383789,418.604645 508.638489,416.766693   C508.960815,414.440369 507.376587,411.018402 510.170990,410.048279   C512.918152,409.094604 516.412598,407.925201 519.295288,410.439728   C518.737366,413.209656 516.315552,412.471497 514.860596,413.390289   C515.647949,414.336334 517.757080,414.075165 517.386780,415.917053   C517.048645,417.598602 515.191040,417.075531 513.870483,418.002380  z"/>
<path fill="#673ab7" opacity="1.000000" stroke="none" d=" M384.851837,417.043488   C384.693817,414.409760 382.285919,412.589996 383.591827,409.809662   C387.932556,409.143860 386.822754,413.578247 388.958466,415.274689   C389.633362,413.830475 390.287201,412.215668 391.130310,410.706604   C391.653198,409.770721 392.631256,409.374176 393.711426,409.779022   C394.920532,410.232086 394.965515,411.288177 394.650818,412.274994   C394.095490,414.016235 393.507233,415.765442 392.719482,417.409149   C391.839874,419.244568 391.774017,422.024323 388.868134,421.978851   C386.071899,421.935059 385.819336,419.326508 384.851837,417.043488  z"/>
<path fill="#673ab7" opacity="1.000000" stroke="none" d=" M426.270020,410.869385   C427.332428,409.716522 428.359344,409.120331 429.491119,410.038513   C430.462280,410.826477 430.024658,411.920746 429.470703,412.728455   C427.935638,414.966736 427.069397,417.411224 426.688599,420.083954   C426.570190,420.914856 425.960266,421.577698 425.021576,421.689117   C424.048859,421.804535 423.192230,421.224365 423.200958,420.406555   C423.241730,416.580322 420.237915,413.894409 419.308990,410.780121   C422.179901,407.009308 423.541473,414.113647 426.270020,410.869385  z"/>
<path fill="#673ab7" opacity="1.000000" stroke="none" d=" M610.216797,410.220673   C607.005249,413.486542 607.720886,418.095001 606.415466,422.778046   C601.940308,419.175293 605.712646,412.911957 599.877686,411.024811   C603.696899,408.580475 606.802612,408.704681 610.216797,410.220673  z"/>
<path fill="#673ab7" opacity="1.000000" stroke="none" d=" M652.972412,409.854187   C654.370117,410.569244 655.430237,411.286041 656.456970,411.980286   C658.244812,411.680817 658.789185,408.756378 661.827209,410.322296   C660.382202,414.060516 658.889343,417.922699 657.396423,421.784882   C656.915466,421.830017 656.434509,421.875183 655.953552,421.920349   C655.817200,417.549500 650.993835,414.866913 652.972412,409.854187  z"/>
<path fill="#673ab7" opacity="1.000000" stroke="none" d=" M597.345886,419.505920   C596.778809,424.061066 593.499573,421.800842 591.294128,422.029999   C589.194092,422.248230 588.566101,420.418182 588.499512,418.690369   C588.417603,416.566467 588.574768,414.430603 588.688293,412.303070   C588.752441,411.101379 589.037659,409.855011 590.558044,409.891541   C592.117065,409.928986 592.334534,411.247223 592.225037,412.410553   C591.874817,416.131012 592.683411,418.928192 597.345886,419.505920  z"/>
<path fill="#673ab7" opacity="1.000000" stroke="none" d=" M487.871399,419.666565   C488.108246,416.161194 486.560699,412.734161 489.333984,410.091522   C491.772186,410.912933 491.230988,412.819855 491.289185,414.339600   C491.368286,416.403656 491.943115,417.835480 494.239838,418.168976   C495.567871,418.361816 497.081085,418.818054 496.716400,420.569366   C496.382690,422.172119 494.793579,422.216278 493.477966,422.173218   C491.429718,422.106262 489.038696,422.801727 487.871399,419.666565  z"/>
<path fill="#673ab7" opacity="1.000000" stroke="none" d=" M367.020386,422.198059   C363.384918,422.416046 362.064880,420.971436 362.481995,417.735107   C362.734009,415.780060 362.661713,413.785156 362.799988,411.812683   C362.875031,410.742126 363.363556,409.843109 364.581848,409.871521   C365.832397,409.900665 366.391418,410.932434 366.210541,411.924164   C365.406403,416.333374 367.596100,418.800293 371.520538,419.873749   C370.881653,422.731018 368.933411,421.985840 367.020386,422.198059  z"/>
<path fill="#673ab7" opacity="1.000000" stroke="none" d=" M638.722046,416.985962   C638.726196,415.547241 638.673767,414.551392 638.756531,413.566925   C638.874817,412.158813 638.421997,410.090424 640.424255,409.972931   C643.006775,409.821289 642.595215,412.282867 642.330994,413.636719   C641.475525,418.021637 645.109131,418.459045 647.954529,419.952484   C646.273193,423.134552 643.607178,422.186005 641.416565,421.972534   C638.760498,421.713684 638.774109,419.461517 638.722046,416.985962  z"/>
<path fill="#673ab7" opacity="1.000000" stroke="none" d=" M378.468567,410.898865   C379.488434,414.023346 379.304382,416.859741 379.033112,419.654358   C378.860138,421.436157 377.760681,422.527100 375.984833,421.135040   C374.162109,419.706299 374.881409,411.548767 376.892883,410.181885   C377.143188,410.011841 377.780518,410.411377 378.468567,410.898865  z"/>
<path fill="#673ab7" opacity="1.000000" stroke="none" d=" M633.712036,410.744568   C634.616699,413.869904 634.337524,416.658691 634.178894,419.439911   C634.119080,420.489502 633.664429,421.484894 632.574341,421.648865   C631.144226,421.863922 630.663818,420.737457 630.291870,419.574310   C628.888123,415.185669 630.325745,410.984344 633.712036,410.744568  z"/>
<path fill="#673ab7" opacity="1.000000" stroke="none" d=" M501.467529,421.520020   C498.961426,418.073273 500.576447,414.626251 500.696411,411.282928   C500.763275,409.417694 502.291199,409.262207 503.535278,410.223663   C505.561249,411.789398 504.233643,420.174561 501.467529,421.520020  z"/>
</svg>