<?xml version="1.0" encoding="UTF-8" standalone="no"?>
<!-- Created with Inkscape (http://www.inkscape.org/) -->

<svg
   version="1.1"
   id="svg1610"
   width="880"
   height="880"
   viewBox="0 0 880 880"
   sodipodi:docname="shrimp-vector-pdv.svg"
   inkscape:version="1.2 (dc2aedaf03, 2022-05-15)"
   xmlns:inkscape="http://www.inkscape.org/namespaces/inkscape"
   xmlns:sodipodi="http://sodipodi.sourceforge.net/DTD/sodipodi-0.dtd"
   xmlns="http://www.w3.org/2000/svg"
   xmlns:svg="http://www.w3.org/2000/svg">
  <defs
     id="defs1614">
    <clipPath
       clipPathUnits="userSpaceOnUse"
       id="clipPath1626">
      <path
         d="M 0,660 H 660 V 0 H 0 Z"
         id="path1624" />
    </clipPath>
  </defs>
  <sodipodi:namedview
     id="namedview1612"
     pagecolor="#ffffff"
     bordercolor="#000000"
     borderopacity="0.25"
     inkscape:showpageshadow="2"
     inkscape:pageopacity="0.0"
     inkscape:pagecheckerboard="0"
     inkscape:deskcolor="#d1d1d1"
     showgrid="false"
     inkscape:zoom="0.95113636"
     inkscape:cx="441.05137"
     inkscape:cy="440.52569"
     inkscape:window-width="1920"
     inkscape:window-height="1017"
     inkscape:window-x="-8"
     inkscape:window-y="-8"
     inkscape:window-maximized="1"
     inkscape:current-layer="g1618">
    <inkscape:page
       x="0"
       y="0"
       id="page1616"
       width="880"
       height="880" />
  </sodipodi:namedview>
  <g
     id="g1618"
     inkscape:groupmode="layer"
     inkscape:label="Page 1"
     transform="matrix(1.3333333,0,0,-1.3333333,0,880)">
    <g
       id="g1620">
      <g
         id="g1622"
         clip-path="url(#clipPath1626)">
        <g
           id="g1628"
           transform="translate(397.4697,103.1768)">
          <path
             d="m 0,0 c 84.919,0 154.179,36.169 154.179,80.516 0,44.347 -69.26,80.516 -154.179,80.516 -84.919,0 -154.179,-36.169 -154.179,-80.516 C -154.179,36.169 -84.919,0 0,0"
             style="fill:#e6e6e6;fill-opacity:1;fill-rule:evenodd;stroke:none"
             id="path1630" />
        </g>
        <g
           id="g1632"
           transform="translate(299.6084,404.04)">
          <path
             d="M 0,0 -149.039,-161.887 -42.827,-2.569 Z"
             style="fill:#f06b13;fill-opacity:1;fill-rule:evenodd;stroke:none"
             id="path1634" />
        </g>
        <g
           id="g1636"
           transform="translate(276.7754,433.4258)">
          <path
             d="M 0,0 -166.758,-143.568 -42.837,2.4 Z"
             style="fill:#f06b13;fill-opacity:1;fill-rule:evenodd;stroke:none"
             id="path1638" />
        </g>
        <g
           id="g1640"
           transform="translate(433.4209,240.8291)">
          <path
             d="m 0,0 -128.375,-22.013 c -18.026,-3.091 -14.194,-29.123 6.287,-23.82 L 6.774,-12.466 Z"
             style="fill:#9e3f00;fill-opacity:1;fill-rule:evenodd;stroke:none"
             id="path1642" />
        </g>
        <g
           id="g1644"
           transform="translate(436.5566,241.3926)">
          <path
             d="m 0,0 -106.914,-70.322 c -15.012,-9.875 1.366,-31.148 17.54,-18.361 l 101.75,80.46 z"
             style="fill:#9e3f00;fill-opacity:1;fill-rule:evenodd;stroke:none"
             id="path1646" />
        </g>
        <g
           id="g1648"
           transform="translate(517.4736,373.9395)">
          <path
             d="m 0,0 c 28.871,12.538 58.154,0.748 65.405,-26.335 3.791,-21.321 -1.734,-39.186 -13.039,-57.401 -19.658,-30.129 -47.959,-47.073 -80.669,-60.028 -17.592,-6.968 -27.583,-8.617 -46.338,-10.308 -8.23,-0.669 -34.787,-0.379 -32.452,12.162 1.758,9.439 23.696,30.263 30.914,38.525 15.441,17.669 25.011,29.909 34.316,51.853 1.164,2.793 2.204,5.538 3.262,8.369 C -31.125,-22.654 -20.014,-9.318 0,0"
             style="fill:#c95202;fill-opacity:1;fill-rule:evenodd;stroke:none"
             id="path1650" />
        </g>
        <g
           id="g1652"
           transform="translate(526.9639,449.2427)">
          <path
             d="m 0,0 c 34.375,14.929 69.24,0.89 77.873,-31.356 8.634,-32.246 -12.233,-70.488 -46.608,-85.419 -34.375,-14.929 -69.241,-0.89 -77.874,31.357 C -55.243,-53.171 -34.376,-14.929 0,0"
             style="fill:#e05f09;fill-opacity:1;fill-rule:evenodd;stroke:none"
             id="path1654" />
        </g>
        <g
           id="g1656"
           transform="translate(498.5869,530.7471)">
          <path
             d="m 0,0 c 44.034,19.125 88.697,1.141 99.758,-40.166 11.058,-41.309 -15.672,-90.298 -59.706,-109.422 -44.035,-19.124 -88.698,-1.14 -99.758,40.167 C -70.766,-68.113 -44.033,-19.124 0,0"
             style="fill:#f06b13;fill-opacity:1;fill-rule:evenodd;stroke:none"
             id="path1658" />
        </g>
        <g
           id="g1660"
           transform="translate(441.8906,587.3511)">
          <path
             d="m 0,0 c 52.99,22.098 102.62,1.317 110.848,-46.415 8.229,-47.733 -28.058,-104.343 -81.05,-126.442 -52.99,-22.099 -102.62,-1.317 -110.848,46.415 C -89.279,-78.708 -52.992,-22.099 0,0"
             style="fill:#ff7d26;fill-opacity:1;fill-rule:evenodd;stroke:none"
             id="path1662" />
        </g>
        <g
           id="g1664"
           transform="translate(269.459,546.2017)">
          <path
             d="M 0,0 C 86.137,51.035 177.817,55.524 204.773,10.026 231.73,-35.471 183.757,-113.727 97.62,-164.761 11.484,-215.797 -80.196,-220.285 -107.153,-174.788 -134.11,-129.291 -86.136,-51.035 0,0"
             style="fill:#ff9752;fill-opacity:1;fill-rule:evenodd;stroke:none"
             id="path1666" />
        </g>
        <g
           id="g1668"
           transform="translate(428.1963,242.4844)">
          <path
             d="m 0,0 -117.644,-50.355 c -16.519,-7.072 -4.152,-30.902 14.025,-21.166 L 10.73,-10.279 Z"
             style="fill:#c95202;fill-opacity:1;fill-rule:evenodd;stroke:none"
             id="path1670" />
        </g>
        <g
           id="g1672"
           transform="translate(446.1592,250.6299)">
          <path
             d="m 0,0 -89.244,-91.712 c -12.53,-12.878 8.047,-30.121 21.083,-14.149 L 13.857,-5.364 Z"
             style="fill:#c95202;fill-opacity:1;fill-rule:evenodd;stroke:none"
             id="path1674" />
        </g>
        <g
           id="g1676"
           transform="translate(445.6514,252.8574)">
          <path
             d="m 0,0 -129.017,-9.028 c -18.116,-1.267 -18.862,-27.875 2.03,-24.631 L 4.46,-13.249 Z"
             style="fill:#c95202;fill-opacity:1;fill-rule:evenodd;stroke:none"
             id="path1678" />
        </g>
        <g
           id="g1680"
           transform="translate(257.9668,523.8335)">
          <path
             d="M 0,0 C 52.002,30.811 107.349,33.521 123.624,6.053 139.897,-21.414 110.935,-68.658 58.934,-99.468 6.933,-130.278 -48.415,-132.989 -64.69,-105.521 -80.964,-78.053 -52.001,-30.81 0,0"
             style="fill:#ffba8c;fill-opacity:1;fill-rule:evenodd;stroke:none"
             id="path1682" />
        </g>
        <g
           id="g1684"
           transform="translate(232.1997,436.1748)">
          <path
             d="M 0,0 -167.884,-132.765 -24.582,7.749 -176.567,-113.073 -26.553,41.972 11.424,23.733 Z"
             style="fill:#ffba8c;fill-opacity:1;fill-rule:evenodd;stroke:none"
             id="path1686" />
        </g>
        <g
           id="g1688"
           transform="translate(272.1582,421.3857)">
          <path
             d="m 0,0 c -12.063,0 -23.223,-9.244 -24.926,-20.648 -1.704,-11.404 6.695,-20.648 18.758,-20.648 12.063,0 23.224,9.244 24.927,20.648 C 20.462,-9.244 12.063,0 0,0"
             style="fill:#333333;fill-opacity:1;fill-rule:evenodd;stroke:none"
             id="path1690" />
        </g>
        <g
           id="g1692"
           transform="translate(279.5576,414.627)">
          <path
             d="m 0,0 c -4.987,0 -9.602,-3.821 -10.306,-8.536 -0.704,-4.715 2.768,-8.536 7.756,-8.536 4.988,0 9.601,3.821 10.305,8.536 C 8.46,-3.821 4.987,0 0,0"
             style="fill:#ffffff;fill-opacity:1;fill-rule:evenodd;stroke:none"
             id="path1694" />
        </g>
        <g
           id="g1696"
           transform="translate(497.8027,322.5957)">
          <path
             d="m 0,0 c 2.995,17.492 -3.598,35.957 -10.973,52.1 -1.89,4.139 -11.419,5.619 -13.56,1.602 -8.203,-15.376 -10.838,-33.396 -12.647,-50.729 -0.258,-2.487 5.568,-4.371 7.105,-2.401 5.773,7.399 7.454,17.227 11.181,25.839 C -19.28,17.286 -25.365,6.465 -20.052,-0.963 -16.157,-6.406 -1.128,-6.596 0,0"
             style="fill:#f06b13;fill-opacity:1;fill-rule:evenodd;stroke:none"
             id="path1698" />
        </g>
        <g
           id="g1700"
           transform="translate(495.1777,372.3467)">
          <path
             d="m 0,0 c -12.148,17.711 -33.439,28.184 -53.45,35.981 -5.132,2 -14.651,-4.749 -13.126,-10.042 5.843,-20.264 18.747,-38.131 31.79,-54.704 1.871,-2.376 8.519,0.898 8.192,3.907 C -27.821,-13.569 -34.645,-3.62 -38.67,7 -31.313,-1.248 -27.473,-15.774 -16.597,-17.742 -8.63,-19.185 4.58,-6.678 0,0"
             style="fill:#ff7d26;fill-opacity:1;fill-rule:evenodd;stroke:none"
             id="path1702" />
        </g>
        <g
           id="g1704"
           transform="translate(464.4824,415.6592)">
          <path
             d="m 0,0 c -20.616,6.02 -43.727,0.65 -64.153,-5.982 -5.24,-1.702 -8.337,-12.952 -3.805,-16.084 17.352,-11.989 38.65,-17.65 59.239,-22.222 2.952,-0.656 6.026,6.088 3.87,8.209 -8.097,7.964 -19.679,11.345 -29.517,17.017 10.916,-1.726 23.085,-10.541 32.75,-5.179 C 5.465,-20.314 7.772,-2.27 0,0"
             style="fill:#ff9752;fill-opacity:1;fill-rule:evenodd;stroke:none"
             id="path1706" />
        </g>
        <g
           id="g1708"
           transform="translate(409.0342,427.8096)">
          <path
             d="m 0,0 c -18.919,-10.165 -31.63,-30.199 -41.542,-49.251 -2.543,-4.887 3.138,-15.079 8.565,-14.134 20.777,3.619 39.933,14.52 57.817,25.696 2.565,1.604 0.026,8.566 -2.998,8.566 -11.358,0 -21.985,-5.71 -32.977,-8.566 8.993,6.425 23.849,8.673 26.981,19.273 C 18.14,-10.649 7.134,3.833 0,0"
             style="fill:#ffba8c;fill-opacity:1;fill-rule:evenodd;stroke:none"
             id="path1710" />
        </g>
      </g>
    </g>
  </g>
</svg>
